<svg width="81" height="46" viewBox="0 0 81 46" fill="none" xmlns="http://www.w3.org/2000/svg">
<g clip-path="url(#clip0_1848_11356)">
<path d="M78.1274 7.19973C78.1341 6.63052 78.0272 6.0657 77.813 5.53828C77.5988 5.01087 77.2816 4.53145 76.8799 4.12806C76.4783 3.72467 76.0003 3.40541 75.4738 3.18893C74.9473 2.97246 74.383 2.86312 73.8137 2.8673H55.1855L65.873 20.7276L66.8594 20.8525L67.4836 21.6703V22.4319L68.1578 22.5692L68.7821 23.4182V24.1549L69.4813 24.2797L70.1867 25.0476V26.7456C71.0265 27.5038 71.973 28.1348 72.9959 28.6184C73.9386 28.9805 74.0447 30.4912 74.6128 31.2965C75.3244 32.4701 76.2983 32.9383 76.0923 33.5938C75.6179 35.348 73.82 38.307 72.1469 38.4444H65.5297V41.2785H73.82C74.3905 41.2761 74.9549 41.161 75.4808 40.9398C76.0068 40.7187 76.4838 40.3958 76.8846 39.9898C77.2854 39.5837 77.6021 39.1025 77.8165 38.5738C78.0308 38.0451 78.1386 37.4792 78.1337 36.9087V7.19973" fill="#0D0300" fill-opacity="0.7"/>
<path d="M32.5557 38.488H29.3532C29.3532 30.4849 32.0563 26.0588 35.2963 25.1786C35.7395 25.0975 35.5273 22.9125 34.9654 22.2446H33.0926C32.793 22.2446 32.9678 21.6827 32.9678 21.6827L34.4847 18.4428L34.2787 17.5563H28.6728L33.2799 14.3351C33.4921 5.83878 42.2069 5.17706 47.457 8.71666C50.5784 10.783 50.8156 14.8782 50.5784 17.7061C50.5409 17.8872 49.7668 17.7686 49.7668 17.7686C49.7668 17.7686 49.2362 20.8899 50.6221 20.8899H56.7461C59.2432 20.79 61.6529 22.4818 61.6529 22.4818L62.2397 20.3405L48.8242 2.86726H7.16675C6.01437 2.86053 4.90598 3.30927 4.08286 4.1158C3.68152 4.522 3.36457 5.00363 3.15028 5.53292C2.936 6.06221 2.82861 6.62869 2.83432 7.19969V36.9461C2.82715 37.5154 2.93391 38.0804 3.14832 38.6079C3.36274 39.1354 3.68048 39.6146 4.08286 40.0175C4.90091 40.8354 6.00991 41.2957 7.16675 41.2972H34.2101C33.5483 40.1611 32.793 38.8688 32.562 38.488" fill="#0D0300"/>
</g>
<defs>
<clipPath id="clip0_1848_11356">
<rect width="80" height="44.9473" fill="white" transform="translate(0.5 0.527344)"/>
</clipPath>
</defs>
</svg>
