<svg width="80" height="18" viewBox="0 0 80 18" fill="none" xmlns="http://www.w3.org/2000/svg">
<g clip-path="url(#clip0_1603_53)">
<path fill-rule="evenodd" clip-rule="evenodd" d="M77.4653 2.88488C75.7533 1.16097 73.7667 0.333496 71.37 0.333496C68.9727 0.333496 66.9173 1.16097 65.2738 2.88488C63.5615 4.53982 62.7396 6.60851 62.7396 8.95303C62.7396 13.78 66.5752 17.5726 71.37 17.5726C76.164 17.5726 80 13.78 80 8.95303C80 6.60851 79.1093 4.53982 77.4653 2.88488ZM10.4109 2.60927C8.8356 1.23014 6.57534 0.609537 3.56164 0.609537H0V17.297H3.49315C6.57534 17.297 8.90413 16.6074 10.4795 15.1593C12.2603 13.5044 13.2192 11.5046 13.2192 8.95323C13.2192 6.3329 12.2603 4.19526 10.4109 2.60927ZM15.4115 0.609537H18.1512V17.297H15.4115V0.609537ZM3.56202 14.6767C5.89079 14.6767 7.60313 14.125 8.63053 13.1597C9.79487 12.0564 10.4113 10.6772 10.4113 8.95336C10.4113 7.1605 9.79487 5.7124 8.562 4.6091C7.5346 3.71268 5.89079 3.22998 3.56202 3.22998H2.80859V14.6767H3.56202ZM71.302 14.8833C72.946 14.8833 74.3153 14.3316 75.48 13.1594C76.644 12.0561 77.192 10.608 77.192 8.9531C77.192 7.2981 76.644 5.85004 75.48 4.74674C74.3153 3.57449 72.946 2.95388 71.2333 2.88493C69.658 2.88493 68.22 3.43658 67.124 4.60884C66.0279 5.78109 65.4115 7.22916 65.4115 8.8841C65.4115 12.194 68.014 14.8833 71.302 14.8833ZM52.6029 17.297H61.6439V14.6766H55.3426V9.5049H61.096V6.88456H55.2741V3.22988H61.6439V0.609537H52.6029V17.297ZM43.2869 8.40136H50.6842L50.7527 8.8841C50.8212 10.1253 50.6842 11.1596 50.4787 11.9871C50.2047 13.0214 49.7253 13.9179 49.0403 14.7454C48.2869 15.6418 47.3965 16.3314 46.3006 16.814C45.2047 17.2967 44.0403 17.5726 42.8759 17.5726C38.2184 17.5726 34.3828 13.711 34.3828 9.02196C34.3828 4.19504 38.2184 0.333496 43.0129 0.333496C45.8212 0.333496 48.2184 1.50575 49.9993 3.91922L47.9445 5.71208C46.5746 3.91922 44.9993 2.95383 43.0129 2.95383C41.3691 2.95383 39.9993 3.50548 38.9033 4.67774C37.6705 5.91895 37.1225 7.36703 37.1225 9.02196C37.1225 10.608 37.739 11.9871 38.8349 13.0904C40.0677 14.3316 41.3691 14.9522 42.8759 14.9522C44.1089 14.9522 45.2732 14.5385 46.3006 13.711C47.191 12.9525 47.739 12.056 47.8759 11.0217H43.2869V8.40136ZM26.4387 0.540527L19.1784 17.2969H22.1921L23.7674 13.5732C23.7674 13.5043 23.8359 13.3664 23.8359 13.3664C23.8783 13.3664 23.9206 13.3927 23.9791 13.4291C24.0153 13.4516 24.0576 13.478 24.1099 13.5043C25.0003 13.8491 26.0962 14.056 27.1236 14.056C28.151 14.056 29.1784 13.8491 29.7948 13.6422C30.1373 13.5732 30.2058 13.5043 30.2743 13.4354C30.2743 13.4354 30.3427 13.5732 30.3427 13.6422L31.8496 17.2969H34.9318L27.8085 0.540527H26.4387ZM27.1223 11.4356C27.8072 11.4356 28.4921 11.2978 29.0401 11.1598L29.3141 11.0909C29.3141 10.953 29.2455 10.815 29.1771 10.7461L27.1223 5.57438L24.9989 10.6772C24.9989 10.7461 24.9305 10.884 24.862 11.0219C24.9305 11.0219 25.0675 11.0909 25.2045 11.1598C25.8209 11.3667 26.4373 11.4356 27.1223 11.4356Z" fill="#0D0300"/>
</g>
<defs>
<clipPath id="clip0_1603_53">
<rect width="80" height="17.3333" fill="white" transform="translate(0 0.333496)"/>
</clipPath>
</defs>
</svg>
