<svg width="100" height="30" viewBox="0 0 100 30" fill="none" xmlns="http://www.w3.org/2000/svg">
<g clip-path="url(#clip0_1603_63)">
<mask id="mask0_1603_63" style="mask-type:luminance" maskUnits="userSpaceOnUse" x="-52" y="-52" width="607" height="859">
<path d="M-51.957 806.225H554.212V-51.0708H-51.957V806.225Z" fill="white"/>
</mask>
<g mask="url(#mask0_1603_63)">
<path d="M53.0829 10.3287V14.6412H49.8681L49.8691 28.7335H44.7216L44.7196 14.6412H42.7472V10.3287H44.7196V4.835H49.8691L49.8681 10.3287H53.0829ZM79.5963 10.3185H74.5323V28.7335H79.5963V10.3185ZM77.0648 1.96646C76.2645 1.96646 75.5842 2.2475 75.0211 2.8096C74.459 3.37272 74.178 4.05397 74.178 4.85333C74.178 5.65371 74.459 6.32986 75.0211 6.87873C75.5842 7.42861 76.2645 7.70355 77.0648 7.70355C77.8897 7.70355 78.577 7.42861 79.1279 6.87873C79.6768 6.32986 79.9527 5.65371 79.9527 4.85333C79.9527 4.05397 79.6768 3.37272 79.1279 2.8096C78.577 2.2475 77.8897 1.96646 77.0648 1.96646ZM82.2276 28.7365H87.4372V19.5291C87.4372 16.3784 89.1236 15.1646 90.9565 15.0302C92.8668 14.8887 94.7832 15.5404 94.7832 18.9802V28.7365H99.9919L100 17.5281C100 16.4538 99.8371 15.4609 99.5122 14.5475C99.1874 13.6351 98.7118 12.8541 98.0876 12.2034C97.4624 11.5537 96.6997 11.0415 95.8005 10.6668C94.9004 10.291 93.8627 10.1037 92.6876 10.1037C91.4626 10.1037 90.3628 10.3786 89.3873 10.9285C88.4128 11.4784 87.6378 12.0792 87.0625 12.7289L86.5819 10.3267L82.2164 10.3287L82.2276 28.7365ZM23.9687 28.7365H29.1783V19.5291C29.1783 16.3784 30.8646 15.1646 32.6976 15.0302C34.6089 14.8887 36.5243 15.5404 36.5243 18.9802V28.7365H41.734L41.7411 17.5281C41.7411 16.4538 41.5792 15.4609 41.2543 14.5475C40.9285 13.6351 40.454 12.8541 39.8297 12.2034C39.2035 11.5537 38.4418 11.0415 37.5416 10.6668C36.6414 10.291 35.6038 10.1037 34.4297 10.1037C33.2037 10.1037 32.1039 10.3786 31.1284 10.9285C30.1539 11.4784 29.3789 12.0792 28.8046 12.7289L28.324 10.3267L23.9575 10.3287L23.9687 28.7365ZM71.9133 10.3185V28.7335H67.5672L67.2149 26.8333C65.8564 28.2386 64.0632 29.1133 61.9614 29.1133C57.1031 29.1133 53.1644 24.5869 53.1644 19.3274C53.1644 14.0679 57.1031 10.066 61.9614 10.066C64.1681 10.066 66.0336 10.9051 67.4144 12.3052L67.9419 10.3185H71.9133ZM62.5582 24.4474C65.054 24.4474 67.0774 22.2235 67.0774 19.4781C67.0774 16.7348 65.054 14.5099 62.5582 14.5099C60.0623 14.5099 58.039 16.7348 58.039 19.4781C58.039 22.2235 60.0623 24.4474 62.5582 24.4474ZM0 0.88604V4.87471L8.91521 14.6229L0.0366619 24.644V28.7365L21.649 28.7345V19.3254H16.807V23.6684H7.52319L15.3834 14.4885L7.33583 5.76471L16.4527 5.76573V9.54871H21.2957L21.2926 0.88604H0Z" fill="#0D0300"/>
</g>
</g>
<defs>
<clipPath id="clip0_1603_63">
<rect width="100" height="28.2272" fill="white" transform="translate(0 0.88623)"/>
</clipPath>
</defs>
</svg>
