<svg width="100" height="72" viewBox="0 0 100 72" fill="none" xmlns="http://www.w3.org/2000/svg">
<g clip-path="url(#clip0_1603_58)">
<path d="M23.8119 18.8C23.0191 18.69 22.2116 18.7677 21.4543 19.0268C20.697 19.286 20.0111 19.7193 19.4519 20.292L5.41992 34.692C4.90156 35.2176 4.20924 35.5361 3.47282 35.5876C2.73639 35.6392 2.00645 35.4203 1.41992 34.972L46.2199 69.56C47.2908 70.3872 48.5142 70.9953 49.8202 71.3495C51.1262 71.7038 52.4892 71.7972 53.8313 71.6245C55.1734 71.4517 56.4684 71.0162 57.6421 70.3429C58.8158 69.6695 59.8454 68.7714 60.6719 67.7C60.7839 67.556 60.8919 67.412 60.9919 67.264L87.2599 29.264C87.5791 28.8028 88.0198 28.4391 88.5331 28.2132C89.0464 27.9873 89.6123 27.9079 90.1679 27.984L23.8119 18.8Z" fill="#0D0300" fill-opacity="0.05"/>
<path d="M92.6969 45.9278L71.7969 51.5998L87.2329 29.2638C87.5405 28.819 87.9616 28.4646 88.4523 28.2373C88.9431 28.01 89.4857 27.9181 90.0239 27.9712C90.5621 28.0242 91.0764 28.2203 91.5133 28.539C91.9502 28.8577 92.294 29.2875 92.5089 29.7838L97.7849 41.9998C98.1738 42.9016 98.8878 43.6241 99.7849 44.0238L92.6969 45.9278Z" fill="#0D0300" fill-opacity="0.1"/>
<path d="M4.72072 3.19999C4.88083 2.17797 4.63382 1.13392 4.03272 0.291992L39.7847 21.02L23.8127 18.8C23.0199 18.69 22.2124 18.7677 21.4551 19.0268C20.6978 19.286 20.0119 19.7193 19.4527 20.292L5.42072 34.692C4.97249 35.1517 4.38972 35.4571 3.75659 35.564C3.12346 35.6708 2.47275 35.5737 1.89845 35.2865C1.32415 34.9994 0.855997 34.5371 0.561614 33.9665C0.267231 33.3959 0.161859 32.7464 0.260719 32.112L4.72072 3.19999Z" fill="#0D0300" fill-opacity="0.1"/>
<path d="M34.555 36.0518V41.0478H32.619V36.4838C32.6382 36.3295 32.6221 36.1729 32.5719 36.0257C32.5218 35.8785 32.4389 35.7447 32.3296 35.6342C32.2202 35.5236 32.0872 35.4394 31.9406 35.3877C31.794 35.336 31.6375 35.3183 31.483 35.3358C31.1863 35.3389 30.8925 35.3944 30.615 35.4998V41.0478H28.675V34.2478C29.6215 33.8461 30.6352 33.6263 31.663 33.5998C33.655 33.5998 34.555 34.5998 34.555 36.0518ZM63.535 36.6598L62.4831 36.3038C62.0551 36.1518 61.903 35.9718 61.903 35.7638C61.903 35.4718 62.1951 35.2638 62.7311 35.2638C63.3481 35.2867 63.9505 35.4582 64.4871 35.7638L65.3351 34.2558C64.5243 33.8296 63.623 33.6046 62.7071 33.5998C61.1071 33.5998 59.8831 34.5398 59.8831 35.8958C59.8831 37.2518 60.8351 37.8078 61.7111 38.0958L62.6351 38.3998C63.119 38.5678 63.3551 38.7038 63.3551 39.0078C63.3551 39.3118 63.1071 39.5198 62.4551 39.5198C61.786 39.5001 61.1337 39.3056 60.5631 38.9558L59.7311 40.4918C60.5729 40.9566 61.5215 41.1937 62.4831 41.1798C64.0831 41.1798 65.3871 40.2678 65.3871 38.8158C65.3871 37.5998 64.6271 37.0358 63.535 36.6598ZM20.611 39.5118C20.211 39.5118 20.059 39.3158 20.059 38.8598V31.0718H18.123V39.4158C18.123 40.6158 18.867 41.1838 20.003 41.1838C20.507 41.1873 21.0078 41.1034 21.483 40.9358L21.275 39.3998C21.0594 39.4654 20.8363 39.503 20.611 39.5118ZM39.675 31.0718H41.599V40.5478C40.6664 40.9604 39.6589 41.1769 38.639 41.1838C36.639 41.1838 35.663 39.9838 35.663 38.5278V36.1278C35.663 34.6758 36.631 33.6238 38.307 33.6238C38.7672 33.6246 39.2246 33.6961 39.663 33.8358L39.675 31.0718ZM39.675 35.4318C39.3765 35.3272 39.0633 35.2705 38.747 35.2638C38.5866 35.2549 38.4262 35.2814 38.2772 35.3414C38.1281 35.4013 37.9941 35.4934 37.8845 35.6109C37.775 35.7285 37.6926 35.8687 37.6433 36.0216C37.594 36.1745 37.5789 36.3364 37.599 36.4958V38.2518C37.5812 38.4227 37.6019 38.5954 37.6597 38.7572C37.7175 38.9191 37.8108 39.0659 37.9329 39.1868C38.055 39.3077 38.2027 39.3997 38.365 39.4559C38.5274 39.5122 38.7003 39.5313 38.871 39.5118C39.144 39.5135 39.4149 39.466 39.671 39.3718L39.675 35.4318ZM27.627 36.5358V38.0318H23.779V38.1558C23.7627 38.3369 23.7862 38.5194 23.8478 38.6905C23.9093 38.8617 24.0076 39.0172 24.1356 39.1464C24.2636 39.2756 24.4184 39.3752 24.5889 39.4383C24.7595 39.5014 24.9418 39.5265 25.123 39.5118C25.7618 39.5049 26.3872 39.3282 26.935 38.9998L27.475 40.5358C26.6922 40.9858 25.8019 41.2153 24.899 41.1998C23.335 41.1998 21.843 40.3558 21.843 38.2118V36.6918C21.843 34.8118 22.979 33.6198 24.775 33.6198C26.655 33.5998 27.627 34.8638 27.627 36.5358ZM25.755 36.4558C25.755 35.7638 25.439 35.2798 24.791 35.2798C24.143 35.2798 23.795 35.7638 23.795 36.4558V36.5798H25.755V36.4558ZM45.355 39.5118C44.955 39.5118 44.803 39.3158 44.803 38.8598V31.0718H42.867V39.4158C42.867 40.6158 43.611 41.1838 44.747 41.1838C45.251 41.1873 45.7518 41.1034 46.227 40.9358L46.0191 39.3998C45.8047 39.4651 45.5829 39.5027 45.359 39.5118H45.355ZM58.9551 35.9118V40.5438C58.0344 40.9483 57.0442 41.171 56.0391 41.1998C54.1431 41.1998 53.1031 40.2878 53.1031 38.7998C53.1031 37.5398 54.0311 36.5998 55.6791 36.5998H57.0191V36.2958C57.0191 35.6318 56.5231 35.3678 55.8191 35.3678C55.0726 35.4038 54.344 35.6075 53.687 35.9638L53.4951 34.2198C54.3589 33.8104 55.3031 33.5986 56.259 33.5998C57.3951 33.5998 58.9551 34.1038 58.9551 35.9158V35.9118ZM57.0191 38.0278H55.9991C55.4071 38.0278 55.059 38.3438 55.059 38.7758C55.059 39.2878 55.5151 39.5758 56.1511 39.5758C56.4469 39.5741 56.7408 39.5283 57.0231 39.4398L57.0191 38.0278ZM52.371 36.5318V38.0278H48.527V38.1518C48.5101 38.3327 48.533 38.5151 48.5941 38.6863C48.6552 38.8574 48.753 39.0131 48.8808 39.1423C49.0085 39.2716 49.163 39.3713 49.3334 39.4344C49.5038 39.4976 49.6859 39.5226 49.8671 39.5078C50.5058 39.5009 51.1312 39.3242 51.6791 38.9958L52.2191 40.5318C51.4363 40.9769 50.5473 41.2009 49.647 41.1798C48.083 41.1798 46.591 40.3358 46.591 38.1918V36.6718C46.591 34.7918 47.723 33.5998 49.5231 33.5998C51.403 33.5998 52.371 34.8638 52.371 36.5358V36.5318ZM50.503 36.4518C50.503 35.7598 50.187 35.2758 49.535 35.2758C48.883 35.2758 48.539 35.7598 48.539 36.4518V36.5758H50.503V36.4518ZM71.9191 36.5318V38.0278H68.071V38.1518C68.0547 38.3329 68.0782 38.5154 68.1398 38.6865C68.2014 38.8577 68.2996 39.0132 68.4276 39.1424C68.5556 39.2716 68.7104 39.3712 68.8809 39.4343C69.0515 39.4974 69.2338 39.5225 69.4151 39.5078C70.0538 39.5009 70.6792 39.3242 71.2271 38.9958L71.7671 40.5318C70.9871 40.9822 70.0997 41.2131 69.1991 41.1998C67.6351 41.1998 66.1431 40.3558 66.1431 38.2118V36.6918C66.1431 34.8118 67.2791 33.6198 69.0751 33.6198C70.9511 33.5998 71.9191 34.8638 71.9191 36.5358V36.5318ZM70.0511 36.4518C70.0511 35.7598 69.7311 35.2758 69.0831 35.2758C68.4351 35.2758 68.0871 35.7598 68.0871 36.4518V36.5758H70.0511V36.4518Z" fill="#0D0300"/>
</g>
<defs>
<clipPath id="clip0_1603_58">
<rect width="100" height="72" fill="white"/>
</clipPath>
</defs>
</svg>
