<svg width="66" height="30" viewBox="0 0 66 30" fill="none" xmlns="http://www.w3.org/2000/svg">
<g clip-path="url(#clip0_1848_11371)">
<path fill-rule="evenodd" clip-rule="evenodd" d="M35.9543 2.31456C35.577 1.98283 35.1012 1.72721 34.5267 1.54697C33.9525 1.36715 33.2765 1.27734 32.4991 1.27734H28.873V13.5624H30.5277V8.96744H32.4991C33.2365 8.96744 33.891 8.87176 34.4626 8.67986C35.0339 8.48882 35.5128 8.2208 35.8985 7.87869C36.2845 7.53595 36.5773 7.12724 36.7775 6.65225C36.977 6.17854 37.0772 5.65522 37.0772 5.08369C37.0772 4.50671 36.9844 3.98372 36.799 3.51461C36.6131 3.04603 36.3315 2.64651 35.9543 2.31456ZM35.2257 6.12102C35.0998 6.43565 34.9137 6.70538 34.6681 6.93106C34.4221 7.15707 34.1179 7.33303 33.7555 7.45822C33.3926 7.58437 32.9737 7.64724 32.4991 7.64724H30.5277V2.58878H32.4991C33.477 2.58878 34.2067 2.80901 34.6894 3.24883C35.1728 3.6894 35.4142 4.30091 35.4142 5.08369C35.4142 5.46065 35.3513 5.80671 35.2257 6.12102Z" fill="#0D0300"/>
<path fill-rule="evenodd" clip-rule="evenodd" d="M40.6965 1.27734H39.0332V13.5623H46.0121V12.1652H40.6965V1.27734Z" fill="#0D0300"/>
<path fill-rule="evenodd" clip-rule="evenodd" d="M55.5395 1.27734V2.67313H49.6396V6.66413H54.4161V8.05992H49.6396V12.1638H55.5395V13.5623H47.9688V1.27734H55.5395Z" fill="#0D0300"/>
<path fill-rule="evenodd" clip-rule="evenodd" d="M64.8201 8.54731C64.6514 8.19901 64.4286 7.90501 64.1515 7.66425C63.8738 7.42425 63.56 7.22582 63.2087 7.06867C62.857 6.91162 62.4968 6.76997 62.1285 6.64414C61.7594 6.51873 61.3996 6.3975 61.0482 6.28001C60.6965 6.16252 60.3822 6.02396 60.1054 5.86392C59.8277 5.7041 59.6046 5.51134 59.4361 5.28555C59.268 5.06019 59.1835 4.7755 59.1835 4.43232C59.1835 4.16355 59.2316 3.91339 59.3292 3.68225C59.4264 3.45069 59.5707 3.24949 59.7617 3.07791C59.9535 2.90653 60.1916 2.77119 60.4777 2.6708C60.7632 2.57084 61.0919 2.52059 61.4636 2.52059C61.8582 2.52059 62.1937 2.5687 62.4711 2.66577C62.748 2.76327 62.9859 2.87082 63.1827 2.98799C63.3798 3.10527 63.5428 3.21229 63.6714 3.30936C63.7031 3.33299 63.7334 3.35416 63.7633 3.37179L64.5032 2.14973C64.1499 1.86332 63.7551 1.63486 63.316 1.46584C62.7495 1.24892 62.124 1.14062 61.4379 1.14062C60.8265 1.14062 60.2849 1.23471 59.8133 1.42318C59.3422 1.61166 58.9457 1.86332 58.6257 2.17795C58.306 2.49205 58.0615 2.85254 57.893 3.25804C57.7243 3.66408 57.6404 4.08359 57.6404 4.5187C57.6404 5.06179 57.7243 5.51647 57.893 5.88573C58.0615 6.25457 58.2833 6.5615 58.5572 6.80728C58.832 7.05295 59.1447 7.25277 59.4961 7.40757C59.8478 7.5613 60.2079 7.69729 60.5768 7.81467C60.9452 7.93174 61.3051 8.04613 61.657 8.15753C62.0082 8.26924 62.3214 8.40448 62.5955 8.56538C62.8698 8.72424 63.0914 8.92352 63.2596 9.16043C63.4283 9.39798 63.5127 9.70213 63.5127 10.0734C63.5127 10.4109 63.456 10.7169 63.341 10.9909C63.2269 11.2657 63.0624 11.5009 62.8482 11.6985C62.6342 11.8953 62.3728 12.0484 62.0642 12.1569C61.7552 12.2656 61.4039 12.3198 61.0087 12.3198C60.535 12.3198 60.1331 12.2556 59.8047 12.1269C59.476 11.9978 59.1963 11.8564 58.9649 11.7026C58.7332 11.548 58.54 11.4068 58.386 11.2776C58.3447 11.2436 58.3046 11.2147 58.2652 11.1889L57.4941 12.4627C57.8728 12.7856 58.302 13.0546 58.7848 13.2669C59.4392 13.5555 60.1636 13.7001 60.9578 13.7001C61.6093 13.7001 62.1912 13.5995 62.7027 13.4C63.2137 13.1996 63.6452 12.9254 63.9971 12.5766C64.3486 12.2284 64.6159 11.8178 64.7985 11.3469C64.9815 10.8749 65.0733 10.3707 65.0733 9.83374C65.0733 9.32475 64.9888 8.89626 64.8201 8.54731Z" fill="#0D0300"/>
<path fill-rule="evenodd" clip-rule="evenodd" d="M11.8128 4.3125L7.23273 11.3216L2.56573 4.27624V13.5623H0.927734V1.27734H2.30847L7.23273 8.76466L12.0338 1.27734H13.4474V13.5623H11.8128V4.3125Z" fill="#0D0300"/>
<path fill-rule="evenodd" clip-rule="evenodd" d="M25.2868 13.5627H26.9181L22.163 1.27734H20.1595L15.4043 13.5627H17.0357L18.3397 10.1938H23.9828L25.2868 13.5627ZM18.8814 8.79447L21.1613 2.90395L23.4413 8.79447H18.8814Z" fill="#0D0300"/>
<path fill-rule="evenodd" clip-rule="evenodd" d="M37.7045 18.0052C37.1735 17.4478 36.5342 17.0145 35.7883 16.7062C35.0428 16.3977 34.2182 16.2427 33.3149 16.2427C32.4118 16.2427 31.5888 16.3977 30.8459 16.7062C30.1033 17.0145 29.4655 17.4478 28.9343 18.0052C28.4025 18.5624 27.991 19.2259 27.7 19.9943C27.4082 20.7631 27.2625 21.6076 27.2625 22.5276C27.2625 23.448 27.4082 24.2918 27.7 25.0611C27.991 25.8295 28.4025 26.4908 28.9343 27.0454C29.4655 27.6002 30.1033 28.0304 30.8459 28.3357C31.5888 28.6413 32.4118 28.7946 33.3149 28.7946C34.2182 28.7946 35.0428 28.6413 35.7883 28.3357C36.5342 28.0304 37.1735 27.6002 37.7045 27.0454C38.2363 26.4908 38.6477 25.8295 38.9395 25.0611C39.231 24.2918 39.3763 23.448 39.3763 22.5276C39.3763 21.6076 39.231 20.7631 38.9395 19.9943C38.6477 19.2259 38.2363 18.5624 37.7045 18.0052ZM37.3616 24.5551C37.156 25.1522 36.8642 25.6577 36.4873 26.072C36.1103 26.4872 35.653 26.8045 35.116 27.0238C34.5782 27.2444 33.9786 27.3544 33.3149 27.3544C32.6577 27.3544 32.0601 27.2444 31.5234 27.0238C30.9864 26.8045 30.5272 26.4872 30.1475 26.072C29.7672 25.6577 29.4744 25.1522 29.2689 24.5551C29.0627 23.9574 28.9597 23.2813 28.9597 22.5276C28.9597 21.773 29.0627 21.0958 29.2689 20.4958C29.4744 19.8949 29.7672 19.3887 30.1475 18.9739C30.5272 18.5592 30.9864 18.2403 31.5234 18.0176C32.0601 17.7949 32.6577 17.683 33.3149 17.683C33.9786 17.683 34.5782 17.7949 35.116 18.0176C35.653 18.2403 36.1103 18.5592 36.4873 18.9739C36.8642 19.3887 37.156 19.8949 37.3616 20.4958C37.5676 21.0958 37.6703 21.773 37.6703 22.5276C37.6703 23.2813 37.5676 23.9574 37.3616 24.5551ZM23.3604 23.6698C23.7613 23.4964 24.1096 23.28 24.4029 23.0196C24.7883 22.6769 25.0818 22.2684 25.2819 21.7937C25.4816 21.3199 25.5816 20.797 25.5816 20.225C25.5816 19.6482 25.4889 19.1257 25.3028 18.657C25.117 18.1882 24.8359 17.7886 24.4584 17.4571C24.0814 17.1257 23.6056 16.8697 23.0313 16.6896C22.4569 16.51 21.7808 16.4198 21.0032 16.4198H17.3771V28.7016H19.0481V24.1076H21.0032C21.317 24.1076 21.6121 24.0868 21.8957 24.0521L24.483 28.7016H26.1602L23.3604 23.6698ZM22.2596 22.5995C21.8964 22.725 21.4781 22.7882 21.0032 22.7882H19.0481V17.7316H21.0032C21.9809 17.7316 22.7109 17.9515 23.194 18.3916C23.6771 18.8312 23.9186 19.4422 23.9186 20.225C23.9186 20.6027 23.8558 20.9483 23.7297 21.262C23.6041 21.5768 23.4183 21.8466 23.1724 22.0723C22.9267 22.2984 22.6226 22.4736 22.2596 22.5995ZM15.3653 22.6157V27.4736C15.0571 27.6976 14.7362 27.8909 14.4 28.0564C14.0663 28.2225 13.7098 28.3623 13.33 28.4718C12.948 28.5841 12.543 28.6683 12.1073 28.7218C11.6743 28.7749 11.2005 28.8033 10.6937 28.8033C9.80206 28.8033 8.98432 28.6499 8.24067 28.3443C7.49669 28.0389 6.85738 27.6106 6.31985 27.0584C5.78243 26.5082 5.36484 25.8457 5.06422 25.0741C4.76616 24.3022 4.61328 23.4537 4.61328 22.5267C4.61328 21.5889 4.76092 20.7356 5.05652 19.9639C5.34945 19.192 5.7697 18.5297 6.31739 17.9794C6.86262 17.427 7.52225 17.0012 8.29658 16.6984C9.07091 16.3955 9.93954 16.2422 10.9 16.2422C11.3839 16.2422 11.8374 16.2783 12.2525 16.3494C12.6704 16.4233 13.0575 16.525 13.414 16.6601C13.7733 16.7924 14.1019 16.9555 14.4049 17.1469C14.5807 17.2564 14.7439 17.3783 14.9042 17.5035L14.1656 18.7136C14.1452 18.7031 14.1273 18.6983 14.1044 18.685C13.9617 18.6063 13.8037 18.5095 13.6255 18.3952C13.4472 18.2803 13.2333 18.171 12.9784 18.0637C12.7238 17.9591 12.4232 17.8699 12.0766 17.7961C11.7329 17.7198 11.3228 17.6841 10.8465 17.6841C10.156 17.6841 9.52955 17.7961 8.96924 18.0233C8.40883 18.2469 7.93245 18.5709 7.53753 18.9908C7.14272 19.4115 6.83964 19.9208 6.62807 20.517C6.41928 21.1154 6.31215 21.7856 6.31215 22.5267C6.31215 23.3032 6.42174 23.9991 6.64346 24.6079C6.86262 25.2168 7.17308 25.7308 7.57313 26.1536C7.97318 26.5767 8.44689 26.9005 8.99469 27.1219C9.54473 27.3463 10.151 27.4582 10.8134 27.4582C11.1446 27.4582 11.4501 27.44 11.7253 27.4094C12.0029 27.3788 12.2653 27.3307 12.5098 27.2669C12.7569 27.2061 12.9888 27.1295 13.2053 27.0432C13.4217 26.9512 13.6382 26.8516 13.8574 26.7373V24.0271H11.5699V22.6157H15.3653ZM61.107 18.6572C60.921 18.1884 60.6401 17.7888 60.2624 17.4571C59.8856 17.1257 59.4097 16.8697 58.8353 16.6898C58.2606 16.51 57.5849 16.4195 56.8072 16.4195H53.1812V28.7018H54.8522V24.1076H56.8072C57.5451 24.1076 58.1991 24.0121 58.7712 23.8208C59.342 23.6294 59.8214 23.3621 60.2069 23.0193C60.5924 22.6769 60.8857 22.2684 61.0861 21.7938C61.2856 21.3196 61.3857 20.7971 61.3857 20.225C61.3857 19.6482 61.2928 19.1257 61.107 18.6572ZM59.5339 21.2623C59.4084 21.5768 59.2223 21.8463 58.9766 22.0724C58.7309 22.2984 58.4268 22.4736 58.0636 22.5997C57.7006 22.7251 57.2821 22.7883 56.8072 22.7883H54.8522V17.7316H56.8072C57.7849 17.7316 58.515 17.9518 58.9982 18.3917C59.4813 18.8312 59.7226 19.4422 59.7226 20.225C59.7226 20.6027 59.6599 20.948 59.5339 21.2623ZM49.4986 16.4198V23.8632C49.5023 23.9781 49.5001 24.0899 49.4948 24.2002C49.4945 24.2256 49.4923 24.2506 49.491 24.2761C49.4769 24.4975 49.4455 24.71 49.3983 24.9141C49.3903 24.9462 49.3824 24.9783 49.3733 25.0101C49.3629 25.0499 49.3507 25.0887 49.3389 25.128C48.9189 26.4167 47.7093 27.3493 46.2805 27.35C46.2718 27.35 46.2635 27.3492 46.2547 27.349C44.8493 27.3383 43.6607 26.4278 43.232 25.1648C43.1438 24.8794 43.0854 24.5768 43.0654 24.255C43.0649 24.2383 43.0632 24.2219 43.0629 24.2047C43.0571 24.0904 43.0551 23.9741 43.0589 23.855V16.4198H41.3879V23.8632C41.3879 24.5703 41.5007 25.2257 41.7264 25.8289C41.9519 26.4328 42.2763 26.9559 42.6993 27.3966C43.1227 27.8388 43.6372 28.1848 44.243 28.4354C44.8483 28.6866 45.5287 28.8117 46.2832 28.8117C47.0376 28.8117 47.7177 28.6866 48.3233 28.4354C48.9298 28.1848 49.4431 27.8388 49.8623 27.3966C50.282 26.9559 50.6055 26.4328 50.8316 25.8289C51.0573 25.2257 51.1695 24.5703 51.1695 23.8632V16.4198H49.4986Z" fill="#0D0300" fill-opacity="0.7"/>
</g>
<defs>
<clipPath id="clip0_1848_11371">
<rect width="65" height="28.0526" fill="white" transform="translate(0.5 0.972656)"/>
</clipPath>
</defs>
</svg>
