<svg width="101" height="40" viewBox="0 0 101 40" fill="none" xmlns="http://www.w3.org/2000/svg">
<g clip-path="url(#clip0_7630_49593)">
<path d="M19.4213 38.8871L3.03701 28.221C3.03701 28.221 0.982367 27.0396 0.51201 24.8389C-0.148704 21.7489 2.02915 19.0996 2.02915 19.0996L23.2931 32.9478C24.9334 34.0168 25.3809 36.2039 24.3267 37.8535C23.2434 39.5482 21.0177 39.9221 19.4206 38.8871H19.4213Z" fill="#0D0300"/>
<path d="M3.90255 16.8139C3.90255 16.8139 1.3929 15.2985 1.3929 11.7935C1.3929 8.30065 3.90148 6.80386 3.90148 6.80386L12.8586 0.941718C13.6469 0.442221 14.6002 0.273635 15.512 0.472528C16.4237 0.67142 17.2203 1.22175 17.7288 2.00415C18.2374 2.78655 18.4171 3.73791 18.2287 4.65189C18.0404 5.56586 17.4994 6.36874 16.7229 6.88636L9.17362 11.8021L22.0361 20.1792C22.0361 20.1792 24.3515 21.5056 24.8075 23.7449C25.4443 26.8689 23.294 29.4428 23.294 29.4428L3.90255 16.8139ZM3.85505 39.4524C4.69576 39.4524 5.29433 39.1856 5.87826 38.8071L10.2508 35.9589L5.87826 33.1114C5.28898 32.7317 4.6704 32.466 3.85505 32.466C3.39211 32.4594 2.93247 32.5448 2.50285 32.7174C2.07323 32.89 1.6822 33.1463 1.35249 33.4713C1.02278 33.7963 0.76096 34.1836 0.582256 34.6108C0.403551 35.0379 0.311523 35.4962 0.311523 35.9592C0.311523 36.4222 0.403551 36.8806 0.582256 37.3077C0.76096 37.7348 1.02278 38.1221 1.35249 38.4471C1.6822 38.7722 2.07323 39.0284 2.50285 39.201C2.93247 39.3736 3.39211 39.4591 3.85505 39.4524Z" fill="#0D0300"/>
<path d="M20.7619 8.30927C19.9208 8.30927 19.3223 8.57605 18.7383 8.95427L14.3655 11.8021L18.7383 14.65C19.3276 15.03 19.9466 15.2957 20.7619 15.2957C21.2206 15.2957 21.6749 15.2053 22.0987 15.0298C22.5225 14.8542 22.9076 14.5969 23.232 14.2726C23.5564 13.9482 23.8137 13.5631 23.9892 13.1393C24.1648 12.7155 24.2551 12.2612 24.2551 11.8025C24.2551 11.3437 24.1648 10.8895 23.9892 10.4657C23.8137 10.0419 23.5564 9.65678 23.232 9.3324C22.9076 9.00803 22.5225 8.75072 22.0987 8.57517C21.6749 8.39962 21.2206 8.30927 20.7619 8.30927Z" fill="#0D0300"/>
<path d="M38.9528 28.3643C39.8774 28.3643 40.7396 28.1135 41.4132 27.5335V28.8343C40.6607 29.3514 39.7674 29.5707 38.8271 29.5707C36.4592 29.5707 34.8149 27.925 34.8149 25.5585C34.8149 23.2075 36.5074 21.5621 38.8585 21.5621C39.7832 21.5621 40.6449 21.8289 41.3346 22.3457V23.7718C40.7235 23.1139 39.8774 22.7689 38.9367 22.7689C37.291 22.7689 36.1314 23.9132 36.1314 25.5582C36.1314 27.2039 37.3071 28.3643 38.9528 28.3643ZM44.0932 29.43H42.8235V19.2543L44.0932 20.0389V23.02C44.6732 22.1268 45.5978 21.5628 46.7732 21.5628C48.7167 21.5628 49.751 22.9885 49.751 24.885V29.43H48.466V25.1043C48.466 23.5996 47.8078 22.8007 46.4596 22.8007C45.0335 22.8007 44.0921 24.0228 44.0921 25.5589L44.0932 29.43ZM57.6342 28.1125C56.9921 29.0214 56.0046 29.57 54.7978 29.57C52.541 29.57 50.9267 27.8932 50.9267 25.605C50.9267 23.2707 52.541 21.5614 54.7978 21.5614C56.0046 21.5614 56.9921 22.1257 57.6342 23.0507V21.7025H58.9196V29.4289H57.6342V28.1125ZM52.2432 25.5893C52.2432 27.1878 53.356 28.3632 54.9232 28.3632C56.506 28.3632 57.6342 27.1878 57.6342 25.5893C57.6342 23.9593 56.506 22.7682 54.9232 22.7682C53.356 22.7693 52.2432 23.96 52.2432 25.5903V25.5893ZM62.1639 29.43H60.8942V21.7035H62.1639V23.3489C62.7749 22.2046 63.7624 21.5625 64.9849 21.5625V23.02C63.4489 22.8007 62.1639 23.835 62.1639 25.7468V29.43ZM77.9932 26.0603H71.8964C72.0846 27.4553 73.1817 28.38 74.7174 28.38C75.7049 28.38 76.661 28.0978 77.476 27.5178V28.7403C76.6453 29.3046 75.7049 29.571 74.7174 29.571C72.2882 29.571 70.5492 28.0039 70.5492 25.636C70.5492 23.3164 72.0224 21.5614 74.3578 21.5614C76.5832 21.5614 78.041 23.2068 78.041 25.4168C78.0414 25.6321 78.0253 25.8475 77.9932 26.0603ZM71.9121 25.0268H76.6924C76.5671 23.71 75.7364 22.7385 74.3728 22.7385C72.9621 22.7378 72.1157 23.7253 71.9121 25.026V25.0268ZM80.7046 29.43H79.4349V21.7035H80.7046V23.3489C81.3157 22.2046 82.3028 21.5625 83.5253 21.5625V23.02C81.9899 22.8007 80.7046 23.835 80.7046 25.7468V29.43ZM91.0642 26.0603H84.9678C85.1553 27.4553 86.2528 28.38 87.7885 28.38C88.776 28.38 89.7321 28.0978 90.5471 27.5178V28.7403C89.7164 29.3046 88.776 29.571 87.7885 29.571C85.3592 29.571 83.6203 28.0039 83.6203 25.636C83.6203 23.3164 85.0932 21.5614 87.4285 21.5614C89.6539 21.5614 91.1114 23.2068 91.1114 25.4168C91.1119 25.6322 91.0962 25.8473 91.0642 26.0603ZM84.9835 25.0268H89.7632C89.6378 23.71 88.8071 22.7385 87.4439 22.7385C86.0335 22.7378 85.1878 23.7253 84.9835 25.026V25.0268ZM98.6849 28.1032C98.0585 29.0282 97.0553 29.5921 95.8485 29.5921C93.5914 29.5921 91.9771 27.915 91.9771 25.6268C91.9771 23.2925 93.5914 21.5832 95.8485 21.5832C97.0553 21.5832 98.0585 22.1635 98.6849 23.1035V19.256L99.9703 20.041V29.4296H98.6849V28.1032ZM93.2939 25.6114C93.2939 27.21 94.4064 28.3857 95.9739 28.3857C97.5567 28.3857 98.6849 27.21 98.6849 25.6114C98.6849 23.9814 97.5567 22.7903 95.9739 22.7903C94.4064 22.7903 93.2939 23.9807 93.2939 25.6114ZM67.2032 26.8618C67.2032 27.9432 67.8614 28.3664 68.6921 28.3664C69.3373 28.3727 69.9681 28.1752 70.4946 27.8021V29.0403C69.961 29.4321 69.2249 29.5889 68.5824 29.5889C66.9367 29.5889 65.9335 28.8521 65.9335 26.7675V19.2525L67.2032 20.0371V26.8618ZM69.2553 21.6025C69.1473 21.5324 69.0265 21.4843 68.8999 21.4609C68.7733 21.4375 68.6434 21.4393 68.5174 21.4661C68.3915 21.4929 68.2721 21.5443 68.166 21.6173C68.06 21.6902 67.9693 21.7834 67.8992 21.8914C67.8292 21.9994 67.7811 22.1202 67.7576 22.2468C67.7342 22.3734 67.736 22.5034 67.7628 22.6293C67.7897 22.7552 67.841 22.8746 67.914 22.9807C67.987 23.0867 68.0801 23.1774 68.1882 23.2475L68.2153 23.2646C68.373 23.3656 68.5563 23.4193 68.7435 23.4193C68.9308 23.4193 69.1141 23.3656 69.2717 23.2646L70.5342 22.455L69.2553 21.6025ZM37.4639 17.2221C38.3724 17.2221 39.031 16.8303 39.031 16.125C39.031 15.7018 38.8117 15.3728 38.2307 15.1375L36.3967 14.401C35.4564 13.9935 34.9392 13.4607 34.9392 12.4575C34.9392 11.1096 36.0207 10.2632 37.5878 10.2632C38.4964 10.2632 39.3428 10.5139 39.9385 10.9685V12.3025C39.2335 11.6753 38.371 11.315 37.6042 11.315C36.7889 11.315 36.2089 11.691 36.2089 12.3182C36.2089 12.7882 36.4285 13.0703 37.0399 13.3053L38.8739 14.0421C39.861 14.4653 40.316 15.0607 40.316 15.8914C40.316 17.3646 39.1246 18.2735 37.4482 18.2735C36.4289 18.2735 35.5042 17.9914 34.8307 17.4903V16.1093C35.6453 16.8771 36.5546 17.2221 37.4639 17.2221ZM42.7299 15.545C42.7299 16.6264 43.3878 17.0496 44.2189 17.0496C44.8635 17.0554 45.4935 16.8579 46.0196 16.4853V17.7235C45.486 18.1153 44.7496 18.2721 44.1071 18.2721C42.4614 18.2721 41.4589 17.5357 41.4589 15.451V8.71497L42.7282 7.92926L42.7299 15.545ZM53.1207 16.8143C52.4782 17.7235 51.4907 18.2721 50.2839 18.2721C48.0271 18.2721 46.4128 16.5953 46.4128 14.3068C46.4128 11.9725 48.0271 10.2632 50.2839 10.2632C51.4907 10.2632 52.4782 10.8275 53.1207 11.7525V10.4053H54.406V18.131H53.1207V16.8143ZM47.7292 14.2914C47.7292 15.89 48.8421 17.0653 50.4092 17.0653C51.9924 17.0653 53.1207 15.89 53.1207 14.2914C53.1207 12.6614 51.9924 11.47 50.4092 11.47C48.8421 11.47 47.7292 12.6614 47.7292 14.2914ZM57.6499 18.131H56.3803V10.4053H57.6499V11.7218C58.2299 10.8285 59.1546 10.2643 60.3299 10.2643C62.2735 10.2643 63.3078 11.6907 63.3078 13.5871V18.1321H62.0228V13.8068C62.0228 12.3021 61.3646 11.5028 60.0167 11.5028C58.5903 11.5028 57.6489 12.7253 57.6489 14.2614L57.6499 18.131ZM71.1914 16.7832C70.5646 17.7082 69.5614 18.2725 68.3546 18.2725C66.0978 18.2725 64.4835 16.5953 64.4835 14.3068C64.4835 11.9725 66.0978 10.2632 68.3546 10.2632C69.5614 10.2632 70.5646 10.8432 71.1914 11.7835V8.7139L72.4767 7.92926V18.131H71.1914V16.7832ZM65.7999 14.2914C65.7999 15.89 66.9128 17.0653 68.4799 17.0653C70.0632 17.0653 71.1914 15.89 71.1914 14.2914C71.1914 12.6614 70.0632 11.47 68.4799 11.47C66.9139 11.47 65.7999 12.6614 65.7999 14.2914ZM94.701 16.7832C94.0742 17.7082 93.071 18.2725 91.8642 18.2725C89.6071 18.2725 87.9928 16.5953 87.9928 14.3068C87.9928 11.9725 89.6071 10.2632 91.8642 10.2632C93.071 10.2632 94.0742 10.8432 94.701 11.7835V8.7139L95.986 7.92926V18.131H94.701V16.7832ZM89.3096 14.2914C89.3096 15.89 90.4221 17.0653 91.9896 17.0653C93.5724 17.0653 94.701 15.89 94.701 14.2914C94.701 12.6614 93.5724 11.47 91.9896 11.47C90.4232 11.47 89.3096 12.6614 89.3096 14.2914ZM80.5639 16.8143C79.9214 17.7235 78.9339 18.2721 77.7271 18.2721C75.4703 18.2721 73.856 16.5953 73.856 14.3068C73.856 11.9725 75.4703 10.2632 77.7271 10.2632C78.9339 10.2632 79.9214 10.8275 80.5639 11.7525V10.4053H81.8492V18.131H80.5639V16.8143ZM75.1724 14.2914C75.1724 15.89 76.2853 17.0653 77.8524 17.0653C79.4353 17.0653 80.5639 15.89 80.5639 14.2914C80.5639 12.6614 79.4353 11.47 77.8524 11.47C76.2842 11.47 75.1724 12.6614 75.1724 14.2914ZM85.0932 18.131H83.8235V10.4053H85.0932V12.051C85.7042 10.9068 86.6917 10.2643 87.9142 10.2643V11.7218C86.3782 11.5025 85.0932 12.5368 85.0932 14.4489V18.131ZM44.5192 12.051C44.6547 12.1394 44.81 12.1929 44.9711 12.2067C45.1323 12.2206 45.2944 12.1943 45.443 12.1304C45.5915 12.0664 45.722 11.9668 45.8227 11.8402C45.9235 11.7136 45.9913 11.5641 46.0203 11.405C46.0435 11.2778 46.0412 11.1473 46.0136 11.021C45.986 10.8947 45.9337 10.7752 45.8596 10.6693C45.7857 10.5633 45.6917 10.473 45.5828 10.4035L45.5557 10.3868C45.3976 10.2863 45.2141 10.2333 45.0269 10.2339C44.8397 10.2346 44.6566 10.2888 44.4992 10.3903L43.2374 11.2028L44.5192 12.051Z" fill="#0D0300"/>
</g>
<defs>
<clipPath id="clip0_7630_49593">
<rect width="100" height="39.2857" fill="white" transform="translate(0.25 0.357117)"/>
</clipPath>
</defs>
</svg>
