<svg width="81" height="28" viewBox="0 0 81 28" fill="none" xmlns="http://www.w3.org/2000/svg">
<g clip-path="url(#clip0_7630_49554)">
<path d="M4.85267 19.9485C5.19074 20.8457 5.6588 21.6128 6.25692 22.2498C6.85504 22.8869 7.56363 23.3745 8.3827 23.7126C9.20186 24.0506 10.0925 24.2196 11.0546 24.2196C11.9908 24.2196 12.8684 24.0441 13.6876 23.693C14.5067 23.3419 15.2218 22.8478 15.8329 22.2108C16.4439 21.5737 16.9185 20.8131 17.2566 19.929C17.5947 19.0448 17.7637 18.0568 17.7637 16.9645V0.113953H21.8593V27.4181H17.8027V24.8827C16.8926 25.8447 15.8198 26.5859 14.5847 27.1061C13.3494 27.6261 12.0168 27.8861 10.5866 27.8861C9.13031 27.8861 7.77163 27.6325 6.5104 27.1255C5.24926 26.6184 4.15702 25.8969 3.23395 24.9607C2.31088 24.0245 1.58269 22.9 1.04965 21.5867C0.516521 20.2735 0.25 18.8108 0.25 17.1985V0.113953H4.34561V16.9645C4.34561 18.0568 4.5146 19.0513 4.85267 19.9485ZM28.919 0.113953V10.0604C29.8291 9.1503 30.8824 8.42876 32.0785 7.89564C33.2747 7.36251 34.5749 7.09598 35.9791 7.09598C37.4353 7.09598 38.8004 7.36898 40.0747 7.91505C41.3488 8.46113 42.4539 9.20226 43.3901 10.1385C44.3263 11.0746 45.0675 12.1797 45.6135 13.4539C46.1596 14.7282 46.4326 16.0804 46.4326 17.5106C46.4326 18.9407 46.1596 20.2865 45.6135 21.5476C45.0675 22.8088 44.3263 23.9075 43.3901 24.8436C42.4539 25.7798 41.3488 26.5209 40.0747 27.067C38.8004 27.613 37.4353 27.886 35.9791 27.886C34.5748 27.886 33.2682 27.6195 32.059 27.0864C30.8498 26.5533 29.7901 25.8317 28.88 24.9216V27.418H24.9794V0.113953H28.919ZM29.3675 20.202C29.7186 21.0342 30.2062 21.7623 30.8303 22.3864C31.4544 23.0105 32.1825 23.5046 33.0146 23.8686C33.8468 24.2327 34.7439 24.4147 35.7061 24.4147C36.6423 24.4147 37.5263 24.2327 38.3584 23.8686C39.1905 23.5046 39.9121 23.0105 40.5233 22.3864C41.1344 21.7623 41.6219 21.0342 41.986 20.202C42.35 19.3699 42.532 18.4728 42.532 17.5106C42.532 16.5484 42.35 15.6448 41.986 14.7996C41.6219 13.9545 41.1344 13.2199 40.5233 12.5958C39.9121 11.9718 39.1906 11.4842 38.3584 11.1332C37.5262 10.7821 36.6422 10.6065 35.7061 10.6065C34.77 10.6065 33.8858 10.7821 33.0537 11.1332C32.2216 11.4843 31.4935 11.9718 30.8693 12.5958C30.2453 13.2199 29.7512 13.9545 29.3871 14.7996C29.0231 15.6448 28.8411 16.5484 28.8411 17.5106C28.841 18.4728 29.0165 19.3699 29.3675 20.202ZM48.6556 13.493C49.1756 12.2448 49.8908 11.1462 50.8009 10.1971C51.7109 9.24792 52.7902 8.50031 54.0384 7.95424C55.2866 7.40816 56.6388 7.13517 58.095 7.13517C59.5252 7.13517 60.8514 7.39522 62.0736 7.91523C63.2958 8.43532 64.3489 9.15695 65.2331 10.0801C66.1172 11.0032 66.8064 12.0954 67.3003 13.3566C67.7944 14.6178 68.0415 15.9895 68.0415 17.4718V18.759H51.8541C51.9841 19.5651 52.2442 20.3127 52.6342 21.0017C53.0243 21.6908 53.5118 22.2889 54.0969 22.796C54.682 23.3031 55.3451 23.6997 56.0862 23.9857C56.8274 24.2717 57.6139 24.4148 58.4461 24.4148C60.8125 24.4148 62.7238 23.4396 64.18 21.4893L67.0274 23.5955C66.0393 24.9218 64.8171 25.962 63.3609 26.716C61.9047 27.4701 60.2664 27.8472 58.4462 27.8472C56.9639 27.8472 55.5793 27.5871 54.292 27.067C53.0048 26.547 51.8867 25.8189 50.9376 24.8827C49.9884 23.9465 49.2408 22.8478 48.6948 21.5867C48.1487 20.3256 47.8756 18.9538 47.8756 17.4716C47.8754 16.0674 48.1356 14.7412 48.6556 13.493ZM54.1359 11.9522C53.0307 12.8754 52.2962 14.1041 51.9321 15.6383H64.063C63.7249 14.1041 63.0033 12.8754 61.8981 11.9522C60.7929 11.0292 59.4992 10.5676 58.017 10.5676C56.5348 10.5676 55.2411 11.0292 54.1359 11.9522ZM75.4133 12.4008C74.5812 13.3109 74.1651 14.5461 74.1651 16.1064V27.4182H70.2255V7.52511H74.1261V9.98249C74.6202 9.17637 75.2638 8.53924 76.0569 8.07119C76.85 7.60305 77.7926 7.36898 78.8849 7.36898H80.25V11.0355H78.6118C77.3116 11.0356 76.2455 11.4907 75.4133 12.4008Z" fill="#010202"/>
</g>
<defs>
<clipPath id="clip0_7630_49554">
<rect width="80" height="27.776" fill="white" transform="translate(0.25 0.112)"/>
</clipPath>
</defs>
</svg>
