<svg width="63" height="44" viewBox="0 0 63 44" fill="none" xmlns="http://www.w3.org/2000/svg">
<g clip-path="url(#clip0_1848_11380)">
<path d="M18.537 23.292C18.173 23.292 18.118 23.369 17.765 23.369C17.379 23.369 17.191 23.182 17.191 22.707C17.191 21.627 18.074 20.424 18.074 19.122C18.074 18.041 17.247 17.522 15.669 17.522C14.709 17.522 13.661 17.798 11.94 17.798C10.142 17.798 9.15 17.556 7.55 17.556C4.02 17.556 2.056 18.956 2.056 21.494C2.056 22.796 2.927 23.645 3.931 24.23C2.409 24.594 1.383 25.3 1.383 26.514C1.383 27.175 1.901 27.749 2.629 27.992C1.625 28.047 0.5 28.455 0.5 29.58C0.5 31.268 3.225 31.765 5.696 31.765C8.984 31.765 11.786 30.375 11.786 28.025C11.786 24.252 4.956 26.602 5.133 24.848C5.14311 24.7936 5.16202 24.7413 5.189 24.693C5.884 24.881 6.612 24.958 7.439 24.958C10.451 24.958 12.205 23.8 12.205 21.902C12.205 21.052 11.874 20.412 11.19 19.949C13.363 20.059 13.64 20.424 13.64 21.329C13.64 22.101 13.143 23.557 13.143 24.671C13.143 25.995 13.97 26.745 15.879 26.745C17.368 26.745 19.299 25.785 19.299 24.428C19.288 23.767 19.056 23.292 18.537 23.292ZM5.718 28.488C7.395 28.598 7.814 28.632 7.814 29.007C7.814 29.415 7.373 29.724 6.159 29.724C4.924 29.724 3.919 29.393 3.919 28.731C3.919 28.565 3.953 28.433 4.03 28.323C4.593 28.423 5.189 28.455 5.718 28.488ZM7.23 22.663C6.6 22.663 6.148 22.333 6.148 21.637C6.148 20.898 6.623 20.291 7.34 20.291C7.969 20.291 8.421 20.622 8.421 21.317C8.421 22.057 7.947 22.663 7.23 22.663ZM13.176 10C13.176 7.66 14.246 5.09 16.077 5.09C17.291 5.09 18.097 5.73 18.097 6.657C18.097 7.76 17.103 8.444 17.103 9.834C17.103 10.661 17.578 11.048 18.173 11.048C18.913 11.048 19.409 10.551 19.409 9.591C19.409 9.04 19.354 8.786 19.354 8.411C19.354 7.418 19.872 6.866 21.207 6.866C22.454 6.866 22.829 7.363 22.829 8.323C22.829 8.742 22.609 9.205 22.609 9.889C22.609 10.639 22.961 11.103 23.634 11.103C24.462 11.103 24.826 10.308 24.826 9.47C24.826 8.312 24.384 7.462 24.384 6.8C24.384 5.752 25.344 5.09 26.679 5.09C28.135 5.09 28.852 6.27 28.852 8.62C28.852 11.963 26.944 14.225 24.053 14.28C22.928 14.28 21.516 14.06 20.656 12.603C19.751 13.817 18.581 14.28 17.589 14.28C14.621 14.28 13.176 12.813 13.176 10ZM29.514 11.82C29.514 5.144 32.45 0.5 35.196 0.5C36.276 0.5 36.994 1.493 36.994 2.298C36.994 2.629 36.906 2.938 36.365 3.368C35.229 4.284 34.512 5.298 34.015 6.954C34.986 5.43 36.19 5.1 37.071 5.1C38.472 5.1 39.222 5.84 39.222 7.417C39.222 8.52 38.782 9.403 38.782 10.285C38.782 10.98 39.112 11.3 39.741 11.3C39.973 11.3 40.215 11.245 40.458 11.157C40.3762 10.7802 40.3356 10.3956 40.337 10.01C40.337 7.45 42.157 5.1 45.742 5.1C48.368 5.1 50.442 6.347 50.442 9.38C50.442 11.94 48.622 14.29 45.036 14.29C43.381 14.29 41.947 13.738 41.12 12.613C40.237 13.65 39.068 14.29 37.8 14.29C35.78 14.29 35.008 13.132 35.008 11.753C35.008 10.616 35.306 9.954 35.306 9.138C35.306 8.608 35.063 8.344 34.622 8.344C34.07 8.344 33.684 8.951 33.574 10.164C33.541 10.749 33.464 11.654 33.409 13.01C33.375 13.893 32.835 14.257 31.974 14.257C30.485 14.268 29.514 13.585 29.514 11.82ZM44.231 10.055C44.231 10.739 44.54 11.29 45.224 11.29C45.908 11.29 46.526 10.65 46.526 9.305C46.526 8.621 46.216 8.069 45.533 8.069C44.86 8.069 44.231 8.719 44.231 10.055ZM25.62 18.769C25.62 19.817 25.675 20.115 25.675 21.549C25.675 22.961 25.212 23.535 24.594 23.535C24.153 23.535 23.789 23.281 23.789 22.597C23.789 21.439 24.506 20.501 24.506 19.397C24.506 18.295 23.733 17.544 22.056 17.544C21.152 17.544 20.148 17.732 19.464 18.129C18.99 18.405 18.747 18.769 18.747 19.365C18.747 19.718 18.802 20.115 19.001 20.501C19.166 20.81 19.42 20.942 19.905 20.942C20.269 20.942 20.347 21.075 20.347 21.362C20.347 22.167 20.016 22.884 20.016 23.987C20.016 25.774 21.152 26.723 23.237 26.723C26.437 26.723 29.525 23.987 29.525 19.762C29.525 18.306 28.334 17.533 26.845 17.533C26.116 17.533 25.62 17.864 25.62 18.769ZM35.88 23.138C35.1169 23.143 34.36 23.0004 33.651 22.718C33.927 23.491 34.732 23.898 35.671 23.898C36.365 23.898 36.906 23.601 37.457 23.601C38.097 23.601 38.505 24.153 38.505 24.837C38.505 25.223 38.417 25.642 38.031 25.94C37.446 26.381 36.509 26.734 35.13 26.734C32.294 26.734 29.944 25.444 29.944 22.377C29.944 19.541 32.173 17.544 35.405 17.544C37.755 17.544 39.245 18.57 39.245 20.302C39.245 22.035 38.065 23.138 35.88 23.138ZM35.847 20.678C35.847 20.325 35.648 20.093 35.107 20.093C34.611 20.093 34.027 20.391 33.751 21.108C34.191 21.295 34.556 21.351 34.887 21.351C35.549 21.34 35.847 21.086 35.847 20.678ZM44.683 19.983C45.456 19.983 46.228 20.755 47.055 20.777C47.629 20.799 48.18 20.115 48.18 19.265C48.18 18.251 46.879 17.533 44.562 17.533C42.047 17.533 39.862 18.659 39.862 20.656C39.862 23.446 43.47 22.994 43.47 23.966C43.47 24.186 43.326 24.318 43.062 24.318C41.848 24.318 41.274 23.215 40.414 23.215C39.719 23.215 39.178 23.955 39.178 24.682C39.178 25.862 40.59 26.723 43.095 26.723C45.996 26.723 47.894 25.488 47.894 23.436C47.894 20.898 44.231 21.174 44.231 20.314C44.22 20.126 44.352 19.983 44.683 19.983ZM62.489 24.892C62.489 25.477 62.29 25.807 61.849 26.138C61.298 26.547 60.503 26.723 59.698 26.723C58.518 26.723 57.414 26.26 56.962 25.201C56.41 26.326 55.34 26.723 54.336 26.723C52.516 26.723 51.137 25.399 51.137 22.895C51.137 19.619 53.343 17.533 55.859 17.533C56.686 17.533 57.436 17.787 57.977 18.361C58.397 17.699 58.915 17.533 59.499 17.533C60.216 17.533 61.519 17.953 61.519 19.023C61.519 20.126 60.658 21.869 60.658 22.917C60.658 23.337 60.801 23.491 61.132 23.491H61.331C61.628 23.491 61.959 23.513 62.213 23.877C62.423 24.175 62.489 24.539 62.489 24.892ZM57.16 20.832C56.9472 20.7298 56.7129 20.6808 56.477 20.689C55.561 20.689 54.954 21.494 54.954 22.531C54.954 23.215 55.318 23.601 55.914 23.601C56.444 23.601 56.796 23.181 56.929 22.255C56.962 21.946 57.072 21.362 57.16 20.832ZM18.295 33.089C19.067 33.089 19.343 33.453 19.895 33.453C20.589 33.453 21.163 32.438 21.163 31.71C21.163 31.268 20.865 30.904 20.358 30.573C19.806 30.243 18.978 29.989 17.842 29.989C15.217 29.989 12.867 31.831 12.867 34.854C12.867 37.689 14.687 39.167 17.478 39.167C18.615 39.167 19.498 38.914 20.126 38.527C20.678 38.174 20.866 37.832 20.866 37.336C20.866 36.531 20.446 35.791 19.784 35.791C19.177 35.791 18.924 36.045 18.206 36.045C17.434 36.045 16.827 35.637 16.827 34.666C16.817 33.751 17.478 33.089 18.295 33.089ZM27.87 29.978C26.844 29.978 26.105 30.838 25.664 32.316C25.697 32.041 25.719 31.743 25.719 31.456C25.719 30.551 25.3 29.989 23.822 29.989C22.796 29.989 22.332 30.408 22.002 31.842C21.67 33.276 21.538 34.986 21.538 36.586C21.538 38.549 22.619 39.178 24.108 39.178C24.848 39.178 25.344 38.814 25.378 37.799C25.41 36.719 25.454 35.902 25.521 35.46C25.719 34.137 26.326 33.938 27.175 33.784C28.411 33.563 29.195 32.879 29.195 31.522C29.216 30.529 28.753 29.978 27.87 29.978ZM50.607 33.651C50.607 36.741 48.864 39.167 46.128 39.167C45.4015 39.1634 44.6893 38.9656 44.065 38.594C43.977 39.498 43.9 40.524 43.867 41.66C43.834 42.686 43.26 42.984 42.455 42.984C41.098 42.984 40.005 42.356 40.028 40.48C40.028 39.642 40.072 38.803 40.138 37.965C39.454 38.671 38.594 39.156 37.49 39.156C36.222 39.156 35.394 38.66 34.843 37.634C34.269 38.759 33.221 39.156 32.217 39.156C30.397 39.156 29.017 37.832 29.017 35.328C29.017 32.052 31.224 29.967 33.74 29.967C34.545 29.967 35.284 30.22 35.814 30.761C36.288 30.099 36.84 29.967 37.27 29.967C38.428 29.967 39.388 30.497 39.388 31.588C39.388 32.548 38.528 34.181 38.528 35.262C38.528 35.847 38.88 36.056 39.355 36.056C39.675 36.056 40.028 35.979 40.392 35.802C40.568 34.578 40.822 33.353 41.142 32.14C41.583 30.43 42.047 29.967 43.106 29.967C44.683 29.967 45.146 30.54 45.146 31.434V31.71C45.643 30.518 46.581 29.967 47.816 29.967C49.659 29.977 50.607 31.5 50.607 33.651ZM35.041 33.265C34.8279 33.1628 34.5932 33.1138 34.357 33.122C33.442 33.122 32.835 33.927 32.835 34.964C32.835 35.648 33.199 36.034 33.74 36.034C34.324 36.034 34.677 35.614 34.81 34.688C34.843 34.39 34.953 33.806 35.041 33.265ZM46.746 34.39C46.746 33.64 46.448 33.254 45.831 33.254C45.301 33.254 44.893 33.585 44.651 34.688C44.617 34.821 44.518 35.318 44.396 36.089C44.694 36.233 44.981 36.288 45.256 36.288C46.216 36.288 46.746 35.416 46.746 34.39Z" fill="#200C05"/>
</g>
<defs>
<clipPath id="clip0_1848_11380">
<rect width="62" height="43" fill="white" transform="translate(0.5 0.5)"/>
</clipPath>
</defs>
</svg>
